# xmcd
#
# Track frame offsets:
#	150
#	22129
#	45490
#	60920
#	92604
#	113118
#	137278
#	180728
#	206962
#	219334
#	238141
#	253225
#	266333
#	279295
#
# Disc length: 3910 seconds
#
# Revision: 3
# Processed by: cddbd v1.5.1PL0 Copyright (c) Steve Scherf et al.
# Submitted via: dBpowerAMP V4.0
#
DISCID=c40f440e
DTITLE=Motor City Josh - Going to The Country
DYEAR=1998
DGENRE=Blues
TTITLE0=Going to The Country
TTITLE1=Watch What You're Doin'
TTITLE2=Little Hoochie Mama
TTITLE3=Later For You Baby
TTITLE4=Big City Hillbilly
TTITLE5=These Funkin' Blues is Killing Me
TTITLE6=I Got News For You Baby
TTITLE7=I'm Good
TTITLE8=Blues Playin' Bassman
TTITLE9=Back in The Day
TTITLE10=She's so Doggone Fine
TTITLE11=I'm Still Drunk From Last Night
TTITLE12=I Live The Blues
TTITLE13=I'd Rather go to The Bar
EXTD=Go To Motorcityjosh.com For Info
EXTT0=
EXTT1=
EXTT2=
EXTT3=
EXTT4=
EXTT5=
EXTT6=
EXTT7=
EXTT8=
EXTT9=
EXTT10=
EXTT11=
EXTT12=
EXTT13=
PLAYORDER=
